<svg version="1.2" xmlns="http://www.w3.org/2000/svg" viewBox="0 0 1202 133" width="1202" height="133">
	<title>Nytt projekt</title>
	<style>
		.s0 { fill: #000000 } 
	</style>
	<path id="PRALINKULLAN" class="s0" aria-label="PRALINKULLAN"  d="m11.8 125v-109.4h46.8q20.8 0 32 9.4 11.2 9.2 11.2 26.3 0 17.2-11.2 26.5-11.2 9.3-32 9.3h-18.6v37.9zm43.8-88.9h-15.6v30.5h15.6q8.2 0 12.6-3.9 4.5-4.1 4.5-11.4 0-7.3-4.5-11.3-4.4-3.9-12.6-3.9zm94.3 28h11.9q8.8 0 12.6-3.3 3.9-3.3 3.9-10.8 0-7.5-3.9-10.7-3.8-3.2-12.6-3.2h-11.9zm8 19.5h-8v41.3h-28.2v-109.3h43.1q21.6 0 31.6 7.2 10.1 7.3 10.1 23 0 10.8-5.3 17.8-5.2 6.9-15.7 10.2 5.8 1.3 10.3 6 4.6 4.6 9.3 14.1l15.3 31h-30l-13.3-27.1q-4.1-8.2-8.2-11.2-4.1-3-11-3zm152.5 41.3l-6.8-19.9h-44.1l-7 19.9h-28.3l40.5-109.3h33.6l40.5 109.3zm-28.9-83.7l-15.1 43.5h30zm71.8 83.8v-109.4h28.2v88h49.5v21.4zm95.6 0v-109.4h28.2v109.4zm55.8 0v-109.4h31.5l39.7 75v-75h26.8v109.4h-31.5l-39.8-75v75zm126.5 0v-109.4h14.8v46.2l49.1-46.2h19l-54.3 51 58.2 58.4h-19.5l-52.5-52.7v52.7zm92.7-41.1v-68.3h14.8v66.4q0 17.6 6.4 25.4 6.4 7.7 20.6 7.7 14.3 0 20.6-7.7 6.4-7.8 6.4-25.4v-66.4h14.9v68.3q0 21.4-10.7 32.3-10.5 10.9-31.2 10.9-20.7 0-31.3-10.9-10.5-10.9-10.5-32.3zm111.4 41.1v-109.4h14.8v96.9h53.3v12.5zm83.5 0v-109.4h14.8v96.9h53.3v12.5zm143.7-40.4l-20.2-54.4-20 54.4zm-70.3 40.4l41.8-109.4h16.8l41.6 109.4h-15.4l-9.9-28.1h-49.3l-10 28.1zm116.2 0v-109.4h19.9l48.5 91.5v-91.5h14.4v109.4h-20l-48.5-91.5v91.5z"/>
</svg>